<?xml version="1.0" standalone="no"?>
<!DOCTYPE svg PUBLIC "-//W3C//DTD SVG 20010904//EN"
 "http://www.w3.org/TR/2001/REC-SVG-20010904/DTD/svg10.dtd">
<svg version="1.0" xmlns="http://www.w3.org/2000/svg"
 x="0px" y="0px" width="105px" height="60px" viewBox="0 0 1920 1080"
 preserveAspectRatio="xMidYMid meet">
<metadata>
Created by potrace 1.16, written by Peter Selinger 2001-2019
</metadata>
<g transform="translate(0.000000,1080.000000) scale(0.100000,-0.100000)"
fill="#fff" stroke="none">
<path d="M13299 7558 c-66 -56 -234 -258 -304 -368 -339 -529 -620 -1222 -781
-1926 -49 -216 -104 -521 -111 -620 -7 -96 11 -251 39 -344 49 -161 164 -321
254 -356 54 -21 153 -16 209 11 57 28 135 109 201 211 32 49 117 161 189 249
360 440 827 1097 1270 1790 67 105 203 317 302 471 196 304 222 350 247 433
18 63 21 203 5 249 -10 30 -12 31 -57 25 -26 -3 -69 -15 -97 -25 -125 -48
-208 -129 -394 -382 -65 -89 -208 -282 -318 -431 -289 -391 -522 -731 -746
-1086 -32 -50 -59 -90 -61 -88 -6 6 28 176 59 304 30 122 157 510 260 795 84
232 166 481 208 630 29 107 32 126 32 275 0 113 -4 169 -14 193 -7 17 -16 32
-20 32 -3 0 -19 -21 -35 -48 -34 -55 -164 -232 -171 -232 -3 0 5 24 16 53 12
28 25 63 31 77 7 19 -5 12 -47 -30 l-57 -55 26 52 c14 28 37 78 51 110 l25 58
-35 -40 -36 -40 16 33 c9 19 14 36 11 39 -7 8 -64 -33 -119 -86 l-48 -46 21
53 c11 30 27 67 35 83 9 16 14 29 11 29 -2 0 -33 -24 -67 -52z"/>
<path d="M6697 7486 c-82 -29 -179 -86 -284 -166 -63 -47 -824 -803 -951 -944
-21 -23 -41 -36 -58 -36 -24 0 -25 3 -19 33 9 39 36 118 103 292 74 194 111
307 118 358 7 49 -2 117 -15 117 -4 0 -33 -35 -64 -77 -31 -43 -68 -91 -82
-108 -24 -28 -25 -28 -16 -5 5 14 18 46 30 73 11 26 17 47 13 47 -3 0 -28 -21
-55 -47 l-48 -48 45 94 c47 97 52 122 16 80 l-21 -24 16 32 c8 18 15 35 15 38
0 13 -61 -28 -114 -76 l-57 -52 21 52 c11 29 29 70 40 91 26 51 26 53 -12 45
-55 -12 -85 -38 -360 -302 -719 -689 -1510 -1561 -1957 -2158 -178 -237 -251
-348 -258 -391 l-6 -36 67 65 c83 82 236 201 236 184 0 -3 -56 -66 -124 -139
-69 -73 -123 -134 -121 -136 2 -2 16 5 32 15 53 37 56 37 39 7 -9 -16 -23 -39
-32 -51 -16 -22 -15 -23 5 -23 12 0 49 25 85 58 34 31 129 110 210 176 196
158 435 368 825 725 311 284 376 340 387 328 3 -2 -22 -93 -56 -202 -33 -109
-65 -227 -70 -264 -17 -120 17 -256 83 -336 14 -16 28 -28 31 -25 2 3 0 26 -5
50 -12 52 -6 157 12 215 12 38 14 32 26 -124 6 -90 14 -165 16 -167 2 -3 7 22
10 53 4 32 13 78 21 103 14 45 14 44 15 -76 l1 -121 63 -29 c52 -24 75 -28
142 -28 130 0 156 17 396 262 112 114 245 256 294 316 204 248 237 286 251
286 20 0 18 -8 -22 -96 -134 -293 -307 -802 -348 -1023 -20 -107 -21 -298 -1
-374 42 -161 149 -264 309 -297 117 -24 228 7 352 99 141 103 243 226 323 385
l47 94 13 -46 c18 -67 30 -79 53 -50 18 23 18 23 18 -33 0 -49 4 -59 33 -87
18 -18 36 -32 40 -32 3 0 11 15 16 33 8 28 9 29 10 7 1 -14 5 -32 10 -39 8
-12 12 -10 19 10 6 13 20 49 32 79 12 30 25 58 29 62 4 4 5 -50 3 -120 l-4
-129 53 -16 c129 -39 305 -30 460 23 104 35 171 76 256 156 66 63 206 244 262
341 19 32 47 78 63 103 84 130 223 447 252 573 16 70 24 224 15 315 -12 130
-40 203 -104 267 -47 47 -56 51 -160 78 -252 63 -429 62 -551 -4 -196 -107
-424 -340 -561 -574 -63 -108 -160 -323 -178 -396 -11 -45 -258 -271 -366
-336 -81 -48 -86 -49 -94 -15 -12 55 153 577 296 934 133 334 332 742 524
1073 380 655 382 660 392 802 5 75 3 87 -20 135 -56 113 -192 149 -350 94z
m876 -2206 c15 -29 17 -54 15 -150 -4 -133 -12 -151 -131 -330 -145 -216 -307
-381 -468 -475 -91 -53 -109 -41 -85 57 47 195 163 414 350 663 108 143 250
279 285 273 9 -2 24 -19 34 -38z"/>
<path d="M15750 7475 c-185 -41 -329 -129 -625 -381 -262 -222 -595 -567 -571
-592 5 -5 112 65 156 101 14 12 -31 -36 -100 -107 l-125 -128 80 48 c92 55
175 113 225 158 23 21 19 14 -13 -21 -26 -29 -47 -54 -47 -57 0 -3 89 55 198
128 359 242 493 313 680 361 166 44 244 31 258 -40 10 -56 -17 -111 -117 -235
-226 -283 -473 -544 -1299 -1375 -567 -570 -634 -641 -708 -749 -115 -166
-144 -229 -150 -321 -15 -235 101 -394 288 -395 84 0 163 36 245 112 47 43 92
70 200 120 815 380 945 420 1693 524 122 17 123 17 175 -4 87 -36 177 -24 231
31 l31 31 -25 7 c-14 4 -45 8 -70 9 -25 2 -34 4 -20 6 95 14 128 26 134 47 7
26 -3 33 -68 43 l-51 8 60 6 60 5 0 50 0 49 -70 27 -70 27 53 4 53 3 -43 28
c-106 69 -293 101 -583 101 -241 0 -363 -17 -624 -85 -85 -22 -159 -38 -165
-36 -5 2 21 32 59 68 353 331 1212 1185 1356 1349 150 169 213 315 212 485 -1
177 -75 317 -226 430 -82 62 -176 109 -284 141 -111 33 -292 42 -393 19z"/>
<path d="M11076 7100 c-27 -15 -52 -32 -55 -37 -3 -5 -41 -37 -83 -71 -94 -76
-211 -202 -290 -313 -142 -199 -655 -1020 -970 -1554 -352 -597 -422 -719
-461 -810 -60 -138 -97 -305 -67 -305 5 0 42 30 81 68 40 37 65 56 57 42 -44
-73 -98 -181 -86 -174 7 4 36 26 63 48 42 33 46 35 25 11 -13 -17 -46 -53 -73
-81 l-48 -51 32 -21 c41 -25 47 -22 139 65 39 36 70 62 70 57 0 -4 -18 -39
-41 -77 -22 -38 -39 -70 -37 -72 7 -7 72 14 104 34 50 31 154 167 317 414 82
125 153 227 157 227 4 0 12 -15 18 -32 72 -218 151 -365 252 -472 86 -91 152
-128 262 -146 68 -12 173 -6 183 9 2 5 -14 14 -37 20 -50 15 -141 66 -160 88
-11 15 -11 16 7 9 49 -18 186 -45 244 -48 71 -3 91 11 41 32 -46 19 -43 25 13
25 27 0 52 5 54 11 2 6 -31 28 -72 48 -42 21 -74 40 -72 42 3 3 39 -1 81 -9
l76 -15 0 43 c0 57 -30 98 -115 157 -115 79 -155 144 -219 349 -36 116 -79
193 -148 265 l-29 31 133 43 c267 84 644 250 796 349 76 50 158 125 178 163
21 40 17 107 -9 152 -36 63 -67 80 -153 84 -96 5 -182 -24 -344 -116 -63 -36
-153 -83 -200 -104 -84 -39 -319 -122 -326 -115 -4 3 192 328 421 697 276 445
390 650 442 794 l22 59 -60 -59 -61 -59 72 104 c39 57 69 105 67 107 -2 2 -30
-15 -63 -37 l-59 -42 58 59 c58 61 69 91 42 114 -23 19 -55 5 -123 -55 -35
-30 -66 -55 -69 -55 -6 0 17 37 52 85 47 65 44 68 -29 25z"/>
<path d="M8865 5746 c-137 -29 -333 -124 -467 -227 -92 -71 -251 -240 -319
-339 -152 -221 -217 -391 -226 -591 -11 -231 50 -414 176 -532 65 -61 114 -90
205 -122 69 -25 86 -27 169 -22 231 13 474 135 683 342 84 83 160 182 149 193
-2 3 -37 -18 -77 -45 -40 -28 -89 -58 -108 -67 -32 -16 -31 -14 15 26 27 24
61 53 75 66 l25 23 -29 -4 c-28 -5 -28 -5 13 36 43 42 48 60 9 35 -13 -7 -36
-19 -53 -26 -23 -10 -15 1 34 46 42 38 62 63 57 71 -5 7 -12 9 -19 3 -7 -5
-30 -15 -52 -22 -57 -18 -209 -95 -274 -140 -132 -89 -288 -151 -378 -149 -89
1 -143 33 -174 104 -32 73 -24 144 30 247 70 134 166 242 311 350 103 76 147
97 240 110 74 10 80 13 80 34 0 13 -15 40 -32 60 l-33 37 48 -7 c26 -4 47 -4
47 1 0 4 -19 21 -41 37 -45 32 -46 42 -3 26 36 -14 71 -46 91 -84 19 -37 10
-147 -18 -218 -26 -67 -25 -104 5 -123 22 -14 28 -14 87 11 87 37 183 109 275
207 131 139 169 266 118 387 -30 69 -40 84 -89 132 -123 121 -348 176 -550
134z"/>
</g>
</svg>
